<?xml version="1.0" standalone="no"?><!DOCTYPE svg PUBLIC "-//W3C//DTD SVG 1.1//EN" "http://www.w3.org/Graphics/SVG/1.1/DTD/svg11.dtd"><svg class="icon" width="200px" height="200.00px" viewBox="0 0 1024 1024" version="1.1" xmlns="http://www.w3.org/2000/svg"><path d="M830.037333 514.730667c0-35.072-26.368-64.085333-60.416-68.096-0.256-75.178667-61.269333-136.021333-136.533333-136.021334-8.96 0-17.749333 0.853333-26.282667 2.56-30.976-42.922667-81.408-70.826667-138.410666-70.826666-83.797333 0-153.429333 60.330667-167.936 139.946666-33.194667 8.789333-59.733333 33.792-70.741334 65.962667-4.010667-0.682667-8.106667-1.109333-12.288-1.109333-37.717333 0-68.266667 30.549333-68.266666 68.266666s30.549333 68.266667 68.266666 68.266667H392.533333c18.602667 27.562667 50.090667 45.653333 85.845334 45.653333s67.242667-18.090667 85.845333-45.653333H777.386667l0.256-2.304c30.037333-7.253333 52.394667-34.304 52.394666-66.645333z" fill="#E3F7FF" /><path d="M779.605333 438.016C774.826667 361.301333 710.997333 300.373333 633.088 300.373333c-7.594667 0-15.018667 0.597333-22.357333 1.706667-28.501333-36.352-69.12-60.16-115.029334-67.242667-47.786667-7.338667-95.488 4.437333-134.485333 33.024-36.608 26.88-60.16 65.024-69.290667 106.24-21.674667 7.082667-41.130667 20.821333-55.04 39.082667-5.632 7.424-10.325333 15.445333-13.909333 23.893333-1.877333-0.170667-3.669333-0.170667-5.546667-0.170666-43.264 0-78.506667 35.242667-78.506666 78.506666s35.242667 78.506667 78.506666 78.506667c5.632 0 10.24-4.608 10.24-10.24s-4.608-10.24-10.24-10.24c-32 0-58.026667-26.026667-58.026666-58.026667 0-31.658667 25.514667-57.514667 57.173333-58.026666-1.706667 7.765333-2.56 15.786667-2.56 23.893333 0 5.632 4.608 10.24 10.24 10.24s10.24-4.608 10.24-10.24c0-20.309333 6.485333-39.509333 18.688-55.637333 9.216-12.117333 21.333333-21.76 35.072-28.074667-3.84 42.410667 7.168 86.357333 34.304 123.306667 2.048 2.730667 5.12 4.181333 8.277333 4.181333 2.133333 0 4.266667-0.682667 6.058667-1.962667 4.522667-3.328 5.546667-9.728 2.218667-14.336-25.344-34.56-35.754667-76.885333-29.269334-119.210666 6.485333-42.325333 29.098667-79.701333 63.573334-105.045334 67.328-49.493333 160.768-38.485333 215.04 22.869334-59.221333 18.944-102.144 74.410667-102.144 139.861333 0 5.632 4.608 10.24 10.24 10.24s10.24-4.608 10.24-10.24c0-69.632 56.661333-126.293333 126.293333-126.293333 65.962667 0 120.234667 50.858667 125.781333 115.370666-4.437333 1.109333-7.68 5.12-7.68 9.898667 0 5.632 4.608 10.24 10.24 10.24 1.365333 0 2.730667 0.085333 4.096 0.170667 1.28 0.512 2.645333 0.853333 4.096 0.853333 0.597333 0 1.109333-0.085333 1.706667-0.170667 27.477333 4.693333 48.469333 28.672 48.469333 57.514667 0 32.170667-26.197333 58.368-58.368 58.368s-58.368-26.197333-58.368-58.368c0-5.632-4.608-10.24-10.24-10.24s-10.24 4.608-10.24 10.24c0 43.434667 35.328 78.848 78.848 78.848s78.848-35.328 78.848-78.848c0-37.290667-25.941333-68.608-60.672-76.8z" fill="#797E7F" /><path d="M375.04 573.098667c-5.632 0-10.24 4.608-10.24 10.24s4.608 10.24 10.24 10.24c22.613333 0 40.96 18.346667 40.96 40.96v78.506666c0 5.632 4.608 10.24 10.24 10.24s10.24-4.608 10.24-10.24v-78.506666c0-33.877333-27.562667-61.44-61.44-61.44zM593.066667 573.098667c-33.877333 0-61.44 27.562667-61.44 61.44v50.346666c0 5.632 4.608 10.24 10.24 10.24s10.24-4.608 10.24-10.24v-50.346666c0-22.613333 18.346667-40.96 40.96-40.96 5.632 0 10.24-4.608 10.24-10.24s-4.608-10.24-10.24-10.24zM426.24 738.645333c-5.632 0-10.24 4.608-10.24 10.24v68.266667c0 5.632 4.608 10.24 10.24 10.24s10.24-4.608 10.24-10.24v-68.266667c0-5.717333-4.522667-10.24-10.24-10.24zM484.096 668.672c-5.632 0-10.24 4.608-10.24 10.24v68.266667c0 5.632 4.608 10.24 10.24 10.24s10.24-4.608 10.24-10.24v-68.266667c0-5.632-4.608-10.24-10.24-10.24zM541.866667 707.925333c-5.632 0-10.24 4.608-10.24 10.24v98.986667c0 5.632 4.608 10.24 10.24 10.24s10.24-4.608 10.24-10.24v-98.986667c0-5.717333-4.608-10.24-10.24-10.24z" fill="#797E7F" /></svg>